<svg width="34" height="34" viewBox="0 0 34 34" fill="none" xmlns="http://www.w3.org/2000/svg">
<path fill-rule="evenodd" clip-rule="evenodd" d="M4.25 10.9792C4.25 10.3924 4.68911 9.91675 5.23077 9.91675H28.7692C29.3109 9.91675 29.75 10.3924 29.75 10.9792C29.75 11.5661 29.3109 12.0417 28.7692 12.0417H5.23077C4.68911 12.0417 4.25 11.5661 4.25 10.9792Z" fill="white"/>
<path fill-rule="evenodd" clip-rule="evenodd" d="M4.25 16.6459C4.25 16.0591 4.68911 15.5834 5.23077 15.5834H28.7692C29.3109 15.5834 29.75 16.0591 29.75 16.6459C29.75 17.2327 29.3109 17.7084 28.7692 17.7084H5.23077C4.68911 17.7084 4.25 17.2327 4.25 16.6459Z" fill="white"/>
<path fill-rule="evenodd" clip-rule="evenodd" d="M4.25 22.3126C4.25 21.7258 4.68911 21.2501 5.23077 21.2501H28.7692C29.3109 21.2501 29.75 21.7258 29.75 22.3126C29.75 22.8994 29.3109 23.3751 28.7692 23.3751H5.23077C4.68911 23.3751 4.25 22.8994 4.25 22.3126Z" fill="white"/>
</svg>
