<svg width="24" height="24" viewBox="0 0 24 24" fill="none" xmlns="http://www.w3.org/2000/svg">
<path fill-rule="evenodd" clip-rule="evenodd" d="M0.25 2.18526C0.25 2.73755 0.697716 3.18526 1.25 3.18526H3.39814L8.75234 16.2733C8.93375 16.7167 9.40419 16.9692 9.874 16.8752L21.0595 14.6382C21.4266 14.5647 21.722 14.2923 21.8249 13.9323L23.8117 6.9785C23.9942 6.33968 23.5145 5.70378 22.8502 5.70378H7.80554L5.56342 1.21953C5.39403 0.88075 5.04777 0.666748 4.66899 0.666748H1.25C0.697715 0.666748 0.25 1.11446 0.25 1.66675V2.18526ZM9.06485 20.8149C9.06485 22.2059 7.93727 23.3334 6.54633 23.3334C5.1554 23.3334 4.02782 22.2059 4.02782 20.8149C4.02782 19.424 5.1554 18.2964 6.54633 18.2964C7.93727 18.2964 9.06485 19.424 9.06485 20.8149ZM21.6573 20.8149C21.6573 22.2059 20.5298 23.3334 19.1388 23.3334C17.7479 23.3334 16.6203 22.2059 16.6203 20.8149C16.6203 19.424 17.7479 18.2964 19.1388 18.2964C20.5298 18.2964 21.6573 19.424 21.6573 20.8149Z" fill="white"/>
</svg>
